<svg width="50.5" height="71.65" viewBox="0 0 50.5 71.65" xmlns="http://www.w3.org/2000/svg"><g id="svgGroup" stroke-linecap="round" fill-rule="evenodd" font-size="9pt" stroke="#000" stroke-width="0" fill="#8c6984" style="stroke:#000;stroke-width:0;fill:#8c6984"><path d="M 25.35 71.65 L 0 71.65 L 0 0 L 22.85 0 A 56.479 56.479 0 0 1 27.911 0.215 Q 30.412 0.44 32.579 0.902 A 30.369 30.369 0 0 1 34.225 1.3 A 27.306 27.306 0 0 1 38.015 2.62 Q 40.028 3.503 41.621 4.658 A 16.211 16.211 0 0 1 42.075 5 Q 45.15 7.4 46.625 10.875 Q 48.1 14.35 48.1 18.7 Q 48.1 21.35 47.275 23.8 Q 46.45 26.25 44.775 28.35 A 16.815 16.815 0 0 1 41.933 31.133 A 20.293 20.293 0 0 1 40.575 32.1 A 21.154 21.154 0 0 1 37.268 33.848 A 27.256 27.256 0 0 1 34.65 34.8 A 31.981 31.981 0 0 1 39.566 36.158 Q 42.12 37.104 44.086 38.44 A 15.642 15.642 0 0 1 46.5 40.45 A 13.835 13.835 0 0 1 50.246 48.039 A 19.516 19.516 0 0 1 50.5 51.25 A 21.439 21.439 0 0 1 49.862 56.562 A 18.539 18.539 0 0 1 48.825 59.55 Q 47.15 63.3 43.925 66 A 21.037 21.037 0 0 1 39.198 68.957 A 26.905 26.905 0 0 1 36.025 70.175 A 30.771 30.771 0 0 1 30.684 71.326 A 41.866 41.866 0 0 1 25.35 71.65 Z M 25.15 39 L 9.7 39 L 9.7 63.95 L 25.2 63.95 A 30.461 30.461 0 0 0 28.378 63.793 Q 29.979 63.625 31.357 63.276 A 16.47 16.47 0 0 0 32.325 63 A 15.631 15.631 0 0 0 34.883 61.939 A 11.651 11.651 0 0 0 37.225 60.325 Q 39.15 58.6 40.05 56.225 Q 40.95 53.85 40.95 51 A 12.632 12.632 0 0 0 40.351 47.019 A 10.284 10.284 0 0 0 37.025 42.225 Q 34.192 39.898 29.264 39.25 A 31.648 31.648 0 0 0 25.15 39 Z M 9.7 7.65 L 9.7 32.1 L 22.5 32.1 Q 26.081 32.1 28.824 31.413 A 17.484 17.484 0 0 0 29.6 31.2 A 17.232 17.232 0 0 0 32.108 30.241 A 12.475 12.475 0 0 0 34.575 28.7 Q 36.55 27.1 37.5 24.825 A 12.438 12.438 0 0 0 38.417 20.848 A 14.706 14.706 0 0 0 38.45 19.85 Q 38.45 13.55 34.65 10.6 A 11.802 11.802 0 0 0 31.22 8.806 Q 27.858 7.65 22.85 7.65 L 9.7 7.65 Z" vector-effect="non-scaling-stroke"/></g></svg>