<?xml version="1.0" encoding="utf-8"?>
<svg width="300px" height="300px" viewBox="0 0 300 300" version="1.1" xmlns:xlink="http://www.w3.org/1999/xlink" xmlns="http://www.w3.org/2000/svg">
  <defs>
    <linearGradient gradientUnits="objectBoundingBox" x1="0.5" y1="0" x2="0.5" y2="1" id="gradient_1">
      <stop offset="0%" stop-color="#8C6984" />
      <stop offset="100%" stop-color="#9AB8F5" />
    </linearGradient>
  </defs>
  <path d="M250 0C277.618 0 300 22.382 300 50L300 250C300 277.618 277.618 300 250 300L50 300C22.382 300 0 277.618 0 250L0 50C0 22.382 22.382 0 50 0L250 0Z" id="Rectangle" fill="url(#gradient_1)" stroke="none" />
  <path d="M103.729 66C93.5665 66 85.3227 74.2257 85.2995 84.3879L85.0001 216.26C84.989 221.155 86.9255 225.854 90.383 229.319C93.8404 232.784 98.5341 234.732 103.43 234.732L163.772 234.732C164.206 234.732 164.637 234.717 165.064 234.687C193.12 234.288 216.229 211.707 216.229 183.304C216.229 167.325 208.915 153.189 197.522 143.808C196.502 142.969 196.2 141.525 196.795 140.345C200.275 133.459 202.241 125.671 202.241 117.388C202.241 88.7296 178.715 66 150.319 66L103.729 66L103.729 66ZM150.036 168.775C150.131 168.777 150.224 168.777 150.319 168.777C150.478 168.777 150.636 168.777 150.795 168.775L164.308 168.775C172.906 168.775 179.37 175.557 179.37 183.304C179.37 191.051 172.906 197.833 164.308 197.833C163.9 197.833 163.496 197.846 163.096 197.872L124.54 197.872C123.083 197.872 121.904 196.69 121.907 195.233L121.961 171.402C121.965 169.95 123.142 168.775 124.594 168.775L150.036 168.775L150.036 168.775ZM150.583 131.915L124.69 131.915C123.233 131.915 122.054 130.733 122.057 129.277L122.11 105.486C122.115 104.035 123.292 102.859 124.743 102.859L150.319 102.859C158.917 102.859 165.381 109.642 165.381 117.388C165.381 125.056 159.049 131.778 150.583 131.915L150.583 131.915Z" id="Shape" fill="#FFFFFF" fill-rule="evenodd" stroke="none" />
</svg>