<svg width="471.6" height="75.65" viewBox="0 0 471.6 75.65" xmlns="http://www.w3.org/2000/svg"><g id="svgGroup" stroke-linecap="round" fill-rule="evenodd" font-size="9pt" stroke="#000" stroke-width="0mm" fill="url(#lgrad)" style="stroke:#000;stroke-width:0mm;fill:url(#lgrad)">
  <defs>
   <linearGradient id="lgrad" x1="0%" y1="50%" x2="100%" y2="50%" >
          <stop offset="0%" style="stop-color:rgb(140,105,132);stop-opacity:1.00" />
          <stop offset="100%" style="stop-color:rgb(154,184,245);stop-opacity:1.00" />
    </linearGradient>
  </defs>
  <path d="M 254.7 74.85 L 239.2 74.85 L 239.2 23 L 248.8 23 Q 250.25 23 251.225 23.65 A 3.251 3.251 0 0 1 252.347 24.955 A 4.405 4.405 0 0 1 252.6 25.6 L 253.45 28.4 Q 254.75 27.05 256.15 25.925 Q 257.55 24.8 259.175 23.975 A 16.738 16.738 0 0 1 262.442 22.736 A 18.534 18.534 0 0 1 262.675 22.675 A 15.361 15.361 0 0 1 265.099 22.272 A 19.358 19.358 0 0 1 266.8 22.2 A 14.966 14.966 0 0 1 270.347 22.599 A 10.899 10.899 0 0 1 274.575 24.625 A 14.578 14.578 0 0 1 278.539 29.522 A 18.053 18.053 0 0 1 279.25 31.1 A 15.739 15.739 0 0 1 281.578 27.835 A 14.29 14.29 0 0 1 282.425 27 Q 284.3 25.3 286.475 24.25 Q 288.65 23.2 291.075 22.7 Q 293.5 22.2 295.9 22.2 A 25.516 25.516 0 0 1 299.976 22.511 A 19.189 19.189 0 0 1 303.8 23.525 A 15.604 15.604 0 0 1 308.012 25.914 A 14.268 14.268 0 0 1 309.575 27.375 A 15.826 15.826 0 0 1 312.383 31.704 A 19.473 19.473 0 0 1 313.1 33.575 A 23.715 23.715 0 0 1 314.07 38.018 A 31.482 31.482 0 0 1 314.3 41.9 L 314.3 74.85 L 298.8 74.85 L 298.8 41.9 Q 298.8 34.906 293.591 33.988 A 9.757 9.757 0 0 0 291.9 33.85 A 7.84 7.84 0 0 0 289.224 34.291 A 6.864 6.864 0 0 0 286.675 35.925 Q 284.799 37.801 284.619 41.17 A 13.712 13.712 0 0 0 284.6 41.9 L 284.6 74.85 L 269.1 74.85 L 269.1 41.9 Q 269.1 38.104 267.827 36.236 A 4.37 4.37 0 0 0 267.35 35.65 A 5.571 5.571 0 0 0 264.942 34.22 Q 263.741 33.85 262.2 33.85 Q 260.1 33.85 258.225 34.8 A 14.059 14.059 0 0 0 255.353 36.75 A 16.35 16.35 0 0 0 254.7 37.35 L 254.7 74.85 Z M 123.6 0 L 139.1 0 L 139.1 41.95 L 141.4 41.95 A 8.499 8.499 0 0 0 142.201 41.915 Q 143.08 41.831 143.625 41.55 Q 144.22 41.243 144.771 40.552 A 6.556 6.556 0 0 0 145.1 40.1 L 154.9 25.5 A 6.203 6.203 0 0 1 155.768 24.435 A 4.784 4.784 0 0 1 156.925 23.6 Q 158.1 23 159.9 23 L 174.1 23 L 160.7 41.45 A 14.741 14.741 0 0 1 158.938 43.463 A 13.442 13.442 0 0 1 158.625 43.75 Q 157.5 44.75 156.2 45.55 A 14.147 14.147 0 0 1 158.895 48.255 A 17.811 17.811 0 0 1 160.1 50.05 L 174.7 74.85 L 160.7 74.85 Q 158.95 74.85 157.675 74.275 A 4.135 4.135 0 0 1 156.154 73.08 A 5.653 5.653 0 0 1 155.6 72.25 L 145.8 53.9 A 6.972 6.972 0 0 0 145.402 53.266 Q 144.889 52.545 144.35 52.275 A 2.798 2.798 0 0 0 143.808 52.077 Q 143.226 51.925 142.383 51.904 A 11.152 11.152 0 0 0 142.1 51.9 L 139.1 51.9 L 139.1 74.85 L 123.6 74.85 L 123.6 0 Z M 420.5 0 L 436 0 L 436 41.95 L 438.3 41.95 A 8.499 8.499 0 0 0 439.101 41.915 Q 439.98 41.831 440.525 41.55 Q 441.12 41.243 441.671 40.552 A 6.556 6.556 0 0 0 442 40.1 L 451.8 25.5 A 6.203 6.203 0 0 1 452.668 24.435 A 4.784 4.784 0 0 1 453.825 23.6 Q 455 23 456.8 23 L 471 23 L 457.6 41.45 A 14.741 14.741 0 0 1 455.838 43.463 A 13.442 13.442 0 0 1 455.525 43.75 Q 454.4 44.75 453.1 45.55 A 14.147 14.147 0 0 1 455.795 48.255 A 17.811 17.811 0 0 1 457 50.05 L 471.6 74.85 L 457.6 74.85 Q 455.85 74.85 454.575 74.275 A 4.135 4.135 0 0 1 453.054 73.08 A 5.653 5.653 0 0 1 452.5 72.25 L 442.7 53.9 A 6.972 6.972 0 0 0 442.302 53.266 Q 441.789 52.545 441.25 52.275 A 2.798 2.798 0 0 0 440.708 52.077 Q 440.126 51.925 439.283 51.904 A 11.152 11.152 0 0 0 439 51.9 L 436 51.9 L 436 74.85 L 420.5 74.85 L 420.5 0 Z M 64.6 23 L 80.1 23 L 80.1 55.9 Q 80.1 59.75 81.85 61.85 A 5.621 5.621 0 0 0 84.946 63.724 A 8.759 8.759 0 0 0 87 63.95 Q 89.55 63.95 91.775 62.9 Q 94 61.85 96.1 59.95 L 96.1 23 L 111.6 23 L 111.6 74.85 L 102 74.85 Q 99.311 74.85 98.341 72.614 A 5.151 5.151 0 0 1 98.2 72.25 L 97.25 69.25 Q 95.75 70.7 94.15 71.875 Q 92.55 73.05 90.725 73.875 A 20.168 20.168 0 0 1 87.337 75.047 A 22.672 22.672 0 0 1 86.8 75.175 A 19.105 19.105 0 0 1 84.092 75.578 A 23.981 23.981 0 0 1 82.2 75.65 A 20.835 20.835 0 0 1 78.223 75.287 A 16.073 16.073 0 0 1 74.675 74.175 Q 71.4 72.7 69.15 70.05 A 17.61 17.61 0 0 1 66.136 64.902 A 20.647 20.647 0 0 1 65.75 63.8 A 24.247 24.247 0 0 1 64.724 58.647 A 29.75 29.75 0 0 1 64.6 55.9 L 64.6 23 Z M 180.2 23 L 195.7 23 L 195.7 55.9 Q 195.7 59.75 197.45 61.85 A 5.621 5.621 0 0 0 200.546 63.724 A 8.759 8.759 0 0 0 202.6 63.95 Q 205.15 63.95 207.375 62.9 Q 209.6 61.85 211.7 59.95 L 211.7 23 L 227.2 23 L 227.2 74.85 L 217.6 74.85 Q 214.911 74.85 213.941 72.614 A 5.151 5.151 0 0 1 213.8 72.25 L 212.85 69.25 Q 211.35 70.7 209.75 71.875 Q 208.15 73.05 206.325 73.875 A 20.168 20.168 0 0 1 202.937 75.047 A 22.672 22.672 0 0 1 202.4 75.175 A 19.105 19.105 0 0 1 199.692 75.578 A 23.981 23.981 0 0 1 197.8 75.65 A 20.835 20.835 0 0 1 193.823 75.287 A 16.073 16.073 0 0 1 190.275 74.175 Q 187 72.7 184.75 70.05 A 17.61 17.61 0 0 1 181.736 64.902 A 20.647 20.647 0 0 1 181.35 63.8 A 24.247 24.247 0 0 1 180.324 58.647 A 29.75 29.75 0 0 1 180.2 55.9 L 180.2 23 Z M 29.1 74.85 L 0 74.85 L 0 2 L 26.8 2 Q 34.35 2 39.65 3.4 Q 44.163 4.592 47.263 6.618 A 17.728 17.728 0 0 1 48.3 7.35 A 15.416 15.416 0 0 1 52.109 11.48 A 14.493 14.493 0 0 1 53.175 13.55 A 19.701 19.701 0 0 1 54.551 18.971 A 24.398 24.398 0 0 1 54.7 21.7 Q 54.7 24.15 54 26.425 Q 53.3 28.7 51.8 30.7 A 15.329 15.329 0 0 1 49.465 33.164 A 18.938 18.938 0 0 1 47.95 34.325 Q 45.6 35.95 42.3 37.15 Q 47.384 38.386 50.598 40.705 A 14.101 14.101 0 0 1 52.95 42.825 A 13.635 13.635 0 0 1 56.127 49.617 A 18.967 18.967 0 0 1 56.4 52.9 A 21.094 21.094 0 0 1 55.119 60.284 A 20.05 20.05 0 0 1 54.6 61.55 Q 52.8 65.55 49.325 68.525 A 22.851 22.851 0 0 1 44.346 71.736 A 29.488 29.488 0 0 1 40.75 73.175 A 32.576 32.576 0 0 1 34.738 74.506 A 44.163 44.163 0 0 1 29.1 74.85 Z M 368.2 74.85 L 361.1 74.85 A 13.053 13.053 0 0 1 359.948 74.803 Q 358.584 74.681 357.775 74.25 Q 356.65 73.65 355.9 71.75 L 354.8 68.9 A 55.234 55.234 0 0 1 352.654 70.63 A 43.864 43.864 0 0 1 351.05 71.8 Q 349.25 73.05 347.325 73.925 Q 345.4 74.8 343.225 75.225 A 22.384 22.384 0 0 1 340.666 75.566 A 29.306 29.306 0 0 1 338.4 75.65 A 23.578 23.578 0 0 1 334.712 75.373 A 18.701 18.701 0 0 1 331.95 74.725 A 14.575 14.575 0 0 1 328.889 73.363 A 12.28 12.28 0 0 1 327.025 72 A 11.886 11.886 0 0 1 324.05 67.876 A 13.864 13.864 0 0 1 323.9 67.525 A 14.246 14.246 0 0 1 323.011 64.255 A 19.168 19.168 0 0 1 322.8 61.35 A 11.905 11.905 0 0 1 323.389 57.721 A 15.44 15.44 0 0 1 324.2 55.7 Q 325.466 53.078 328.408 50.884 A 20.978 20.978 0 0 1 329.05 50.425 A 21.853 21.853 0 0 1 332.112 48.688 Q 333.741 47.918 335.701 47.256 A 46.976 46.976 0 0 1 338.35 46.45 Q 344.2 44.85 353.1 44.65 L 353.1 42.45 Q 353.1 37.9 351.225 35.875 Q 349.36 33.861 345.937 33.85 A 11.689 11.689 0 0 0 345.9 33.85 Q 343.954 33.85 342.508 34.151 A 9.185 9.185 0 0 0 341.4 34.45 A 22.618 22.618 0 0 0 339.574 35.162 A 17.607 17.607 0 0 0 338.275 35.8 A 46.362 46.362 0 0 1 336.255 36.841 A 40.499 40.499 0 0 1 335.6 37.15 A 6.257 6.257 0 0 1 334.081 37.618 Q 333.397 37.741 332.618 37.749 A 10.654 10.654 0 0 1 332.5 37.75 Q 330.9 37.75 329.775 36.975 Q 328.65 36.2 328 35.05 L 325.2 30.2 Q 329.9 26.05 335.625 24.025 A 35.971 35.971 0 0 1 346.225 22.034 A 41.378 41.378 0 0 1 347.9 22 A 25.01 25.01 0 0 1 352.633 22.43 A 20.118 20.118 0 0 1 356.375 23.525 A 18.826 18.826 0 0 1 361.207 26.337 A 17.228 17.228 0 0 1 362.775 27.775 A 18.51 18.51 0 0 1 366.711 34.017 A 21.145 21.145 0 0 1 366.8 34.25 A 22.336 22.336 0 0 1 368.112 40.269 A 26.726 26.726 0 0 1 368.2 42.45 L 368.2 74.85 Z M 394.7 74.85 L 379.2 74.85 L 379.2 23 L 388.4 23 Q 389.269 23 389.924 23.114 A 5.141 5.141 0 0 1 390.325 23.2 A 3.885 3.885 0 0 1 391.027 23.451 A 2.989 2.989 0 0 1 391.625 23.825 A 2.567 2.567 0 0 1 392.293 24.657 A 3.17 3.17 0 0 1 392.425 24.95 A 7.754 7.754 0 0 1 392.644 25.594 Q 392.745 25.937 392.833 26.333 A 14.687 14.687 0 0 1 392.9 26.65 L 393.75 31.5 A 29.416 29.416 0 0 1 396.725 27.617 A 22.261 22.261 0 0 1 400.15 24.55 Q 403.7 22 407.9 22 A 12.062 12.062 0 0 1 410.271 22.22 Q 411.704 22.507 412.828 23.171 A 6.908 6.908 0 0 1 413.6 23.7 L 411.6 35.1 A 3.581 3.581 0 0 1 411.446 35.668 Q 411.334 35.972 411.173 36.198 A 1.576 1.576 0 0 1 410.8 36.575 A 2.144 2.144 0 0 1 410.125 36.887 Q 409.716 37 409.2 37 A 7.93 7.93 0 0 1 408.46 36.963 Q 408.099 36.929 407.697 36.864 A 15.262 15.262 0 0 1 407.2 36.775 A 10.505 10.505 0 0 0 406.264 36.639 Q 405.401 36.55 404.3 36.55 A 9.747 9.747 0 0 0 396.483 40.36 A 16.483 16.483 0 0 0 394.7 43.05 L 394.7 74.85 Z M 28.7 43.95 L 16.9 43.95 L 16.9 62.1 L 28.8 62.1 Q 32.15 62.1 34.275 61.25 A 10.884 10.884 0 0 0 35.849 60.477 Q 36.888 59.852 37.6 59.05 Q 38.8 57.7 39.25 56 Q 39.7 54.3 39.7 52.55 A 13.11 13.11 0 0 0 39.56 50.594 A 10.099 10.099 0 0 0 39.175 48.95 Q 38.65 47.35 37.375 46.25 Q 36.1 45.15 34 44.55 Q 31.9 43.95 28.7 43.95 Z M 16.9 14.65 L 16.9 32.65 L 25.7 32.65 Q 28.5 32.65 30.75 32.25 A 12.479 12.479 0 0 0 32.696 31.748 A 9.122 9.122 0 0 0 34.575 30.85 Q 36.15 29.85 36.975 28.1 Q 37.655 26.658 37.775 24.604 A 15.563 15.563 0 0 0 37.8 23.7 Q 37.8 21.711 37.42 20.234 A 8.323 8.323 0 0 0 37.15 19.375 A 6.507 6.507 0 0 0 36.068 17.488 A 5.923 5.923 0 0 0 35.15 16.6 A 7.253 7.253 0 0 0 33.457 15.631 Q 32.665 15.304 31.725 15.1 A 18.263 18.263 0 0 0 29.77 14.793 Q 28.76 14.687 27.613 14.66 A 34.004 34.004 0 0 0 26.8 14.65 L 16.9 14.65 Z M 353.1 60.95 L 353.1 53.75 Q 348.45 53.95 345.45 54.55 A 28.883 28.883 0 0 0 343.697 54.954 Q 342.8 55.193 342.051 55.467 A 11.874 11.874 0 0 0 340.7 56.05 A 8.774 8.774 0 0 0 339.667 56.668 Q 339.169 57.018 338.807 57.4 A 3.875 3.875 0 0 0 338.275 58.1 Q 337.6 59.25 337.6 60.6 A 7.589 7.589 0 0 0 337.708 61.931 Q 337.837 62.65 338.117 63.203 A 3.133 3.133 0 0 0 339.05 64.325 Q 340.107 65.109 341.882 65.321 A 11.964 11.964 0 0 0 343.3 65.4 A 14.488 14.488 0 0 0 345.945 65.17 A 10.789 10.789 0 0 0 348.55 64.35 Q 350.497 63.442 352.481 61.56 A 23.328 23.328 0 0 0 353.1 60.95 Z" vector-effect="non-scaling-stroke"/></g></svg>